<svg width="495" height="495" viewBox="0 0 495 495" fill="none" xmlns="http://www.w3.org/2000/svg">
<path d="M492.359 321.04L430.398 68.7604C424.69 45.5126 409.978 25.4824 389.496 13.0745C369.015 0.666675 344.441 -3.10288 321.179 2.59488L77.7129 62.3033L248.455 162.083C255.266 166.059 261.226 171.338 265.995 177.618C270.763 183.897 274.247 191.055 276.246 198.681C278.245 206.307 278.72 214.252 277.645 222.062C276.57 229.871 273.965 237.393 269.98 244.196L125.799 490.628C141.352 495.46 157.928 495.963 173.745 492.082L426.158 430.247C437.682 427.425 448.536 422.36 458.1 415.344C467.664 408.327 475.752 399.495 481.899 389.353C488.047 379.212 492.135 367.958 493.93 356.237C495.725 344.515 495.191 332.555 492.359 321.04Z" fill="#36A4FD"/>
<path d="M2.60431 173.645L64.5189 425.94C67.9425 439.823 74.6358 452.688 84.0412 463.463L211.891 244.907C214.725 240.063 216.577 234.708 217.34 229.148C218.103 223.588 217.764 217.933 216.34 212.505C214.917 207.076 212.437 201.981 209.043 197.511C205.649 193.04 201.408 189.281 196.561 186.449L27.3044 87.5449C16.0337 98.4981 7.82464 112.207 3.49181 127.31C-0.841023 142.413 -1.14697 158.386 2.60431 173.645V173.645Z" fill="#424041"/>
</svg>
