<svg width="55" height="56" viewBox="0 0 55 56" fill="none" xmlns="http://www.w3.org/2000/svg">
<g clip-path="url(#clip0_405_2136)">
<path d="M13.4011 18.7612C14.4456 18.0312 16.02 18.1712 16.9578 18.9457L15.8822 17.3823C15.0167 16.1479 15.3267 14.8123 16.5622 13.9457C17.7978 13.0823 21.2989 15.4034 21.2989 15.4034C20.4256 14.1568 20.5889 12.5768 21.8356 11.7023C22.4349 11.2835 23.176 11.1198 23.896 11.2471C24.6161 11.3744 25.2561 11.7823 25.6756 12.3812L37.2533 28.7368L35.7778 43.0423L23.4633 38.5512L12.7222 22.6257C12.5128 22.3274 12.3642 21.9909 12.2849 21.6352C12.2057 21.2795 12.1974 20.9116 12.2604 20.5527C12.3235 20.1938 12.4567 19.8508 12.6524 19.5434C12.8481 19.236 13.1026 18.9702 13.4011 18.7612V18.7612Z" fill="#EF9645"/>
<path d="M10.9944 27.8601C10.9944 27.8601 9.73667 26.0268 11.5711 24.7701C13.4033 23.5134 14.66 25.3457 14.66 25.3457L20.4944 33.8546C20.6956 33.519 20.9156 33.1879 21.1611 32.8612L13.0633 21.0534C13.0633 21.0534 11.8067 19.2212 13.64 17.9646C15.4722 16.7079 16.7289 18.5401 16.7289 18.5401L24.3456 29.6479C24.6289 29.4168 24.9189 29.1846 25.2178 28.9568L16.3878 16.0779C16.3878 16.0779 15.1311 14.2457 16.9644 12.989C18.7967 11.7323 20.0533 13.5646 20.0533 13.5646L28.8833 26.4412C29.2078 26.2423 29.5289 26.0701 29.8511 25.8879L21.5978 13.8523C21.5978 13.8523 20.3411 12.0201 22.1733 10.7634C24.0056 9.50678 25.2622 11.339 25.2622 11.339L33.9889 24.0657L35.3156 26.0012C29.8178 29.7723 29.2944 36.8668 32.4356 41.4479C33.0633 42.3646 33.98 41.7368 33.98 41.7368C30.21 36.2379 31.3611 30.059 36.86 26.289L35.2389 18.1757C35.2389 18.1757 34.6333 16.0379 36.77 15.4312C38.9078 14.8257 39.5144 16.9634 39.5144 16.9634L41.3867 22.5234C42.1289 24.7279 42.9189 26.9246 43.9644 29.0023C46.9167 34.869 45.1533 42.1601 39.5867 45.979C33.5144 50.1423 25.2133 48.5946 21.0489 42.5234L10.9944 27.8601Z" fill="#FFDC5D"/>
<path d="M21.3333 44.2001C16.8889 44.2001 12.3978 39.709 12.3978 35.2646C12.3978 34.6501 11.9478 34.1534 11.3333 34.1534C10.7189 34.1534 10.1756 34.6501 10.1756 35.2646C10.1756 41.9312 14.6667 46.4223 21.3333 46.4223C21.9478 46.4223 22.4445 45.879 22.4445 45.2646C22.4445 44.6501 21.9478 44.2001 21.3333 44.2001Z" fill="#5DADEC"/>
<path d="M15.7778 46.3757C12.4444 46.3757 10.2222 44.1534 10.2222 40.8201C10.2222 40.5254 10.1052 40.2428 9.89679 40.0344C9.68841 39.8261 9.4058 39.709 9.11111 39.709C8.81643 39.709 8.53381 39.8261 8.32544 40.0344C8.11706 40.2428 8 40.5254 8 40.8201C8 45.2645 11.3333 48.5979 15.7778 48.5979C16.0725 48.5979 16.3551 48.4808 16.5635 48.2724C16.7718 48.0641 16.8889 47.7815 16.8889 47.4868C16.8889 47.1921 16.7718 46.9095 16.5635 46.7011C16.3551 46.4927 16.0725 46.3757 15.7778 46.3757ZM34.6667 10.8201C34.372 10.8201 34.0894 10.9372 33.881 11.1455C33.6726 11.3539 33.5556 11.6365 33.5556 11.9312C33.5556 12.2259 33.6726 12.5085 33.881 12.7169C34.0894 12.9253 34.372 13.0423 34.6667 13.0423C39.1111 13.0423 43.5556 17.0301 43.5556 21.9312C43.5556 22.2259 43.6726 22.5085 43.881 22.7169C44.0894 22.9253 44.372 23.0423 44.6667 23.0423C44.9614 23.0423 45.244 22.9253 45.4523 22.7169C45.6607 22.5085 45.7778 22.2259 45.7778 21.9312C45.7778 15.8045 41.3333 10.8201 34.6667 10.8201Z" fill="#5DADEC"/>
<path d="M40.2222 8.64455C39.6089 8.64455 39.1111 9.09566 39.1111 9.70899C39.1111 10.3223 39.6089 10.8668 40.2222 10.8668C43.5556 10.8668 45.7311 13.339 45.7311 16.3757C45.7311 16.989 46.2744 17.4868 46.8889 17.4868C47.5033 17.4868 47.9533 16.989 47.9533 16.3757C47.9533 12.1123 44.6667 8.64455 40.2222 8.64455Z" fill="#5DADEC"/>
</g>
<defs>
<clipPath id="clip0_405_2136">
<rect width="40" height="40" fill="white" transform="translate(8 8.59789)"/>
</clipPath>
</defs>
</svg>
